<svg width="26" height="26" viewBox="0 0 26 26" fill="none" xmlns="http://www.w3.org/2000/svg">
<path d="M16.6834 10.7033L11.7109 5.73083C11.5079 5.52906 11.2333 5.4158 10.9471 5.4158C10.6609 5.4158 10.3863 5.52906 10.1834 5.73083C10.0818 5.83154 10.0012 5.95135 9.94623 6.08337C9.89123 6.21538 9.86292 6.35698 9.86292 6.49999C9.86292 6.64301 9.89123 6.7846 9.94623 6.91662C10.0012 7.04863 10.0818 7.16845 10.1834 7.26916L15.1667 12.2308C15.2682 12.3315 15.3488 12.4514 15.4038 12.5834C15.4588 12.7154 15.4871 12.857 15.4871 13C15.4871 13.143 15.4588 13.2846 15.4038 13.4166C15.3488 13.5486 15.2682 13.6685 15.1667 13.7692L10.1834 18.7308C9.97937 18.9334 9.86419 19.2087 9.86318 19.4962C9.86216 19.7836 9.97539 20.0598 10.1779 20.2637C10.3805 20.4677 10.6558 20.5829 10.9433 20.5839C11.2308 20.5849 11.5069 20.4717 11.7109 20.2692L16.6834 15.2967C17.292 14.6873 17.6338 13.8612 17.6338 13C17.6338 12.1387 17.292 11.3127 16.6834 10.7033Z" fill="#F0E9E6"/>
</svg>
