<svg width="35" height="35" viewBox="0 0 35 35" fill="none" xmlns="http://www.w3.org/2000/svg">
<g clip-path="url(#clip0_41_2)">
<path d="M5.93255 26.25H28.7642C29.4669 26.25 30.1592 26.0808 30.7827 25.7566C31.4061 25.4325 31.9423 24.9629 32.3458 24.3877C32.7494 23.8124 33.0085 23.1485 33.1011 22.4519C33.1938 21.7554 33.1173 21.0468 32.8782 20.386L28.719 8.88708C28.0087 6.33166 26.4809 4.07923 24.3692 2.47431C22.2576 0.869385 19.6784 0.000309281 17.0261 1.48358e-09C14.2651 -4.31554e-05 11.5866 0.941482 9.43286 2.66912C7.27914 4.39677 5.77897 6.80722 5.18005 9.5025L1.75297 20.5858C1.55119 21.2402 1.50583 21.9328 1.62053 22.6079C1.73524 23.2829 2.0068 23.9217 2.41337 24.4727C2.81995 25.0236 3.35018 25.4715 3.96141 25.7802C4.57264 26.0889 5.24779 26.2498 5.93255 26.25Z" fill="#F0E9E6"/>
<path d="M10.3541 29.1667C10.6888 30.815 11.5831 32.2969 12.8854 33.3614C14.1877 34.4258 15.818 35.0073 17.5 35.0073C19.1819 35.0073 20.8122 34.4258 22.1145 33.3614C23.4168 32.2969 24.3111 30.815 24.6458 29.1667H10.3541Z" fill="#F0E9E6"/>
</g>
<defs>
<clipPath id="clip0_41_2">
<rect width="35" height="35" fill="white"/>
</clipPath>
</defs>
</svg>
