<svg width="30" height="30" viewBox="0 0 30 30" fill="none" xmlns="http://www.w3.org/2000/svg">
<g clip-path="url(#clip0_41_9)">
<path d="M15.0001 0.0524902C11.6925 0.0561291 8.5214 1.37158 6.18247 3.71028C3.84355 6.04897 2.52777 9.21992 2.5238 12.5275C2.5238 15.74 5.0113 20.7675 9.91755 27.47C10.5016 28.2702 11.2664 28.9211 12.1496 29.3699C13.0327 29.8186 14.0094 30.0525 15.0001 30.0525C15.9907 30.0525 16.9674 29.8186 17.8506 29.3699C18.7337 28.9211 19.4985 28.2702 20.0826 27.47C24.9888 20.7675 27.4763 15.74 27.4763 12.5275C27.4723 9.21992 26.1566 6.04897 23.8176 3.71028C21.4787 1.37158 18.3076 0.0561291 15.0001 0.0524902ZM15.0001 17.5C14.0111 17.5 13.0444 17.2067 12.2222 16.6573C11.4 16.1079 10.7591 15.327 10.3807 14.4134C10.0022 13.4998 9.9032 12.4944 10.0961 11.5245C10.2891 10.5546 10.7653 9.66372 11.4645 8.96446C12.1638 8.26519 13.0547 7.78899 14.0246 7.59607C14.9945 7.40314 15.9998 7.50216 16.9135 7.88059C17.8271 8.25903 18.608 8.89989 19.1574 9.72214C19.7068 10.5444 20.0001 11.5111 20.0001 12.5C20.0001 13.8261 19.4733 15.0978 18.5356 16.0355C17.5979 16.9732 16.3261 17.5 15.0001 17.5Z" fill="#F0E9E6"/>
</g>
<defs>
<clipPath id="clip0_41_9">
<rect width="30" height="30" fill="white"/>
</clipPath>
</defs>
</svg>
